<svg width="42" height="42" viewBox="0 0 42 42" fill="none" xmlns="http://www.w3.org/2000/svg">
<path d="M22.4643 9.32143C22.4643 8.37465 21.6968 7.60714 20.75 7.60714C19.8032 7.60714 19.0357 8.37465 19.0357 9.32143V20.75C19.0357 21.3411 19.3402 21.8904 19.8414 22.2037L26.6986 26.4894C27.5014 26.9912 28.5591 26.7471 29.0609 25.9443C29.5626 25.1414 29.3186 24.0838 28.5157 23.582L22.4643 19.7999V9.32143Z" fill="white"/>
<path fill-rule="evenodd" clip-rule="evenodd" d="M20.75 0.75C9.7043 0.75 0.75 9.7043 0.75 20.75C0.75 31.7957 9.7043 40.75 20.75 40.75C31.7957 40.75 40.75 31.7957 40.75 20.75C40.75 9.7043 31.7957 0.75 20.75 0.75ZM4.17857 20.75C4.17857 11.5979 11.5979 4.17857 20.75 4.17857C29.9021 4.17857 37.3214 11.5979 37.3214 20.75C37.3214 29.9021 29.9021 37.3214 20.75 37.3214C11.5979 37.3214 4.17857 29.9021 4.17857 20.75Z" fill="white"/>
<path d="M22.4643 9.32143C22.4643 8.37465 21.6968 7.60714 20.75 7.60714C19.8032 7.60714 19.0357 8.37465 19.0357 9.32143V20.75C19.0357 21.3411 19.3402 21.8904 19.8414 22.2037L26.6986 26.4894C27.5014 26.9912 28.5591 26.7471 29.0609 25.9443C29.5626 25.1414 29.3186 24.0838 28.5157 23.582L22.4643 19.7999V9.32143Z" stroke="white" stroke-width="1.5" stroke-linecap="round" stroke-linejoin="round"/>
<path fill-rule="evenodd" clip-rule="evenodd" d="M20.75 0.75C9.7043 0.75 0.75 9.7043 0.75 20.75C0.75 31.7957 9.7043 40.75 20.75 40.75C31.7957 40.75 40.75 31.7957 40.75 20.75C40.75 9.7043 31.7957 0.75 20.75 0.75ZM4.17857 20.75C4.17857 11.5979 11.5979 4.17857 20.75 4.17857C29.9021 4.17857 37.3214 11.5979 37.3214 20.75C37.3214 29.9021 29.9021 37.3214 20.75 37.3214C11.5979 37.3214 4.17857 29.9021 4.17857 20.75Z" stroke="white" stroke-width="1.5" stroke-linecap="round" stroke-linejoin="round"/>
</svg>
