<svg width="41" height="37" viewBox="0 0 41 37" fill="none" xmlns="http://www.w3.org/2000/svg">
<path d="M7.22252 3.4375H2.25C1.0125 3.4375 0 4.46875 0 5.72917C0 6.98958 1.0125 8.02083 2.25 8.02083H7.22252C8.10002 10.0375 10.08 11.4583 12.375 11.4583H14.625C16.92 11.4583 18.9 10.0375 19.7775 8.02083H38.25C39.4875 8.02083 40.5 6.98958 40.5 5.72917C40.5 4.46875 39.4875 3.4375 38.25 3.4375H19.7775C18.9 1.42083 16.92 0 14.625 0H12.375C10.08 0 8.10002 1.42083 7.22252 3.4375Z" fill="white"/>
<path d="M22.9725 16.0415H2.25C1.0125 16.0415 0 17.0728 0 18.3332C0 19.5936 1.0125 20.6248 2.25 20.6248H22.9275C23.76 22.6415 25.74 24.0623 28.0125 24.0623H30.4425C32.6925 24.0623 34.6275 22.6873 35.505 20.6248H38.2275C39.465 20.6248 40.4775 19.5936 40.4775 18.3332C40.4775 17.0728 39.465 16.0415 38.2275 16.0415H35.5275C34.695 14.0248 32.715 12.604 30.4425 12.604H28.0125C25.7625 12.604 23.8275 13.979 22.95 16.0415H22.9725Z" fill="white"/>
<path d="M11.7225 28.646H2.25C1.0125 28.646 0 29.6772 0 30.9377C0 32.1981 1.0125 33.2293 2.25 33.2293H11.7C12.5325 35.246 14.5125 36.6668 16.785 36.6668H19.215C21.465 36.6668 23.4 35.2918 24.2775 33.2293H38.25C39.4875 33.2293 40.5 32.1981 40.5 30.9377C40.5 29.6772 39.4875 28.646 38.25 28.646H24.3C23.4675 26.6293 21.4875 25.2085 19.215 25.2085H16.785C14.535 25.2085 12.6 26.5835 11.745 28.646H11.7225Z" fill="white"/>
</svg>
