<svg width="30" height="30" viewBox="0 0 30 30" fill="none" xmlns="http://www.w3.org/2000/svg">
<path d="M15.3047 0.5C19.1137 0.5 22.3249 1.79125 24.8408 3.93945L21.1816 7.52246C20.4031 6.87139 19.2645 6.14721 17.7441 5.75195C16.9684 5.55028 16.1539 5.45021 15.3125 5.4502C11.2321 5.4502 7.74472 8.07712 6.37207 11.6426L6.24609 11.9912C5.92264 12.941 5.74512 13.9484 5.74512 15.001C5.74512 16.0122 5.90902 16.985 6.20898 17.9023L6.20996 17.9043C6.23859 17.9906 6.28661 18.1578 6.34473 18.3008V18.3018C7.69995 21.9 11.2011 24.5537 15.3096 24.5537C16.9028 24.5537 19.2463 24.2474 21.2705 22.6963C21.9488 22.1765 22.6131 21.4917 23.1504 20.5918C23.6182 19.8083 23.9395 18.9458 24.083 18.0645L24.1777 17.4844H15.8193V12.7168H29.29C29.4232 13.5573 29.5 14.4574 29.5 15.3438C29.4999 17.5673 29.0962 19.6086 28.3486 21.4062C27.6013 23.2035 26.5088 24.7615 25.1162 26.0195C24.0611 26.9726 22.896 27.714 21.5771 28.2842C19.7502 29.0739 17.6686 29.5 15.3047 29.5C11.222 29.4999 8.24809 27.9164 6.59082 26.7285C4.72261 25.3893 3.18328 23.6398 2.11816 21.6133V21.6045L2.0625 21.4961C1.05418 19.5489 0.500051 17.3467 0.5 14.999C0.5 12.799 0.986211 10.7457 1.87891 8.87598L2.0625 8.50391C3.14825 6.38096 4.75843 4.55069 6.72266 3.18359C9.14516 1.49759 12.1012 0.499996 15.3047 0.5Z" fill="white" stroke="white"/>
</svg>
