<svg width="82" height="77" viewBox="0 0 82 77" fill="none" xmlns="http://www.w3.org/2000/svg">
<path d="M32.9358 24.4212C33.9979 24.4214 34.859 23.5552 34.8593 22.4864C34.8601 19.0663 37.6158 16.2944 41.0145 16.2952C44.4132 16.2959 47.1677 19.0691 47.167 22.4892C47.1667 23.558 48.0275 24.4246 49.0896 24.4248C50.1517 24.425 51.0129 23.5588 51.0131 22.49C51.0139 18.8949 49.1087 15.5724 46.0151 13.7741C42.9215 11.9758 39.1095 11.975 36.0151 13.7719C32.9207 15.5687 31.0139 18.8904 31.0131 22.4855C31.0267 23.5485 31.8795 24.407 32.9358 24.4212Z" fill="white"/>
<rect x="14.0874" y="23.0684" width="53" height="32" rx="4.02083" fill="white" stroke="white" stroke-width="3"/>
</svg>
