<svg width="34" height="42" viewBox="0 0 34 42" fill="none" xmlns="http://www.w3.org/2000/svg">
<path fill-rule="evenodd" clip-rule="evenodd" d="M7.53579 17.6086C7.53579 12.4043 11.6611 8.18538 16.75 8.18538C21.8389 8.18538 25.9642 12.4043 25.9642 17.6086C25.9642 22.813 21.8389 27.0319 16.75 27.0319C11.6611 27.0319 7.53579 22.813 7.53579 17.6086ZM16.75 11.1611C13.2681 11.1611 10.4455 14.0478 10.4455 17.6086C10.4455 21.1695 13.2681 24.0561 16.75 24.0561C20.2319 24.0561 23.0545 21.1695 23.0545 17.6086C23.0545 14.0478 20.2319 11.1611 16.75 11.1611Z" fill="white"/>
<path fill-rule="evenodd" clip-rule="evenodd" d="M0.308676 15.3408C0.996011 6.81304 7.96419 0.25 16.3311 0.25H17.1689C25.5358 0.25 32.504 6.81304 33.1913 15.3408C33.5606 19.9218 32.1769 24.4705 29.3318 28.0289L20.0341 39.6578C18.3367 41.7807 15.1633 41.7807 13.4659 39.6578L4.16817 28.0289C1.3231 24.4706 -0.0605505 19.9218 0.308676 15.3408ZM16.3311 3.22577C9.47852 3.22577 3.77152 8.60095 3.20859 15.5853C2.90129 19.3979 4.05287 23.1837 6.42075 26.1453L15.7185 37.7741C16.2516 38.4409 17.2484 38.4409 17.7815 37.7741L27.0793 26.1453C29.4471 23.1837 30.5987 19.3979 30.2914 15.5853C29.7285 8.60095 24.0215 3.22577 17.1689 3.22577H16.3311Z" fill="white"/>
<path fill-rule="evenodd" clip-rule="evenodd" d="M7.53579 17.6086C7.53579 12.4043 11.6611 8.18538 16.75 8.18538C21.8389 8.18538 25.9642 12.4043 25.9642 17.6086C25.9642 22.813 21.8389 27.0319 16.75 27.0319C11.6611 27.0319 7.53579 22.813 7.53579 17.6086ZM16.75 11.1611C13.2681 11.1611 10.4455 14.0478 10.4455 17.6086C10.4455 21.1695 13.2681 24.0561 16.75 24.0561C20.2319 24.0561 23.0545 21.1695 23.0545 17.6086C23.0545 14.0478 20.2319 11.1611 16.75 11.1611Z" stroke="white" stroke-width="0.5"/>
<path fill-rule="evenodd" clip-rule="evenodd" d="M0.308676 15.3408C0.996011 6.81304 7.96419 0.25 16.3311 0.25H17.1689C25.5358 0.25 32.504 6.81304 33.1913 15.3408C33.5606 19.9218 32.1769 24.4705 29.3318 28.0289L20.0341 39.6578C18.3367 41.7807 15.1633 41.7807 13.4659 39.6578L4.16817 28.0289C1.3231 24.4706 -0.0605505 19.9218 0.308676 15.3408ZM16.3311 3.22577C9.47852 3.22577 3.77152 8.60095 3.20859 15.5853C2.90129 19.3979 4.05287 23.1837 6.42075 26.1453L15.7185 37.7741C16.2516 38.4409 17.2484 38.4409 17.7815 37.7741L27.0793 26.1453C29.4471 23.1837 30.5987 19.3979 30.2914 15.5853C29.7285 8.60095 24.0215 3.22577 17.1689 3.22577H16.3311Z" stroke="white" stroke-width="0.5"/>
</svg>
