<svg width="37" height="45" viewBox="0 0 37 45" fill="none" xmlns="http://www.w3.org/2000/svg">
<path d="M19 0.5C23.6928 0.5 27.5 4.30719 27.5 9C27.5 13.6921 23.6736 17.5 19 17.5C14.3072 17.5 10.5 13.6928 10.5 9C10.5 4.30719 14.3072 0.5 19 0.5ZM19 3.51074C15.9502 3.51074 13.4914 5.96973 13.4912 9.01953C13.4912 12.0695 15.95 14.5293 19 14.5293V13.5293C16.5023 13.5293 14.4912 11.5172 14.4912 9.01953C14.4914 6.52203 16.5024 4.51074 19 4.51074V3.51074Z" fill="white" stroke="white"/>
<path d="M17.9883 22.5C22.4208 22.5001 27.0101 24.2082 30.4863 27.0654C33.9599 29.9206 36.2881 33.892 36.2881 38.4121V40.8838C36.288 42.4225 35.0269 43.6833 33.4883 43.6836H33.4844L3.29883 43.8975C1.7605 43.8968 0.5 42.6361 0.5 41.0977V38.626C0.500006 29.5839 9.09939 22.5 17.9883 22.5Z" fill="white" stroke="white"/>
</svg>
