<svg width="40" height="38" viewBox="0 0 40 38" fill="none" xmlns="http://www.w3.org/2000/svg">
<path fill-rule="evenodd" clip-rule="evenodd" d="M5.64451 14.7377C9.52218 22.7416 16.4224 29.1049 25.0003 32.5529L25.0274 32.5638L26.6845 33.2639C28.7947 34.1552 31.275 33.5222 32.6279 31.7472L35.3927 28.12C35.5616 27.8984 35.5181 27.5903 35.2937 27.4187L30.467 23.7276C30.227 23.5441 29.8742 23.5868 29.6907 23.8216L27.8121 26.2245C27.3559 26.808 26.532 27.0108 25.8339 26.7113C19.4199 23.9598 14.2656 19.074 11.3629 12.994C11.047 12.3323 11.2609 11.5513 11.8765 11.1188L14.4114 9.33815C14.6591 9.16415 14.7042 8.8297 14.5106 8.60225L10.6161 4.02632C10.4351 3.81364 10.1103 3.77233 9.87653 3.93228L6.02928 6.565C4.14439 7.85485 3.4806 10.2257 4.44271 12.2318L5.64322 14.735C5.64365 14.7359 5.64408 14.7368 5.64451 14.7377ZM23.7161 35.3874C14.3957 31.6371 6.8991 24.7209 2.68573 16.0222L2.68319 16.0169L1.48017 13.5085C-0.12335 10.1651 0.982966 6.21356 4.12444 4.06381L7.97169 1.43109C9.60779 0.311487 11.882 0.600648 13.149 2.08938L17.0434 6.66531C18.3984 8.25744 18.0828 10.5986 16.349 11.8166L14.8965 12.837C17.3501 17.3499 21.2387 21.036 25.9996 23.3618L27.076 21.9849C28.3609 20.3414 30.8308 20.0422 32.5104 21.3267L37.337 25.0178C38.908 26.2191 39.2127 28.3757 38.0306 29.9266L35.2658 33.5539C33.0109 36.5122 28.877 37.5671 25.3601 36.0818L23.7161 35.3874Z" fill="white" stroke="white" stroke-width="1.5" stroke-linejoin="round"/>
</svg>
