<svg width="30" height="30" viewBox="0 0 30 30" fill="none" xmlns="http://www.w3.org/2000/svg">
<path fill-rule="evenodd" clip-rule="evenodd" d="M3.86409 11.6564C6.92541 18.3263 12.373 23.6291 19.145 26.5024L19.1664 26.5115L20.4746 27.095C22.1406 27.8376 24.0987 27.3102 25.1668 25.831L27.3495 22.8083C27.4829 22.6237 27.4485 22.3669 27.2713 22.2239L23.4608 19.148C23.2713 18.9951 22.9928 19.0307 22.8479 19.2264L21.3648 21.2287C21.0047 21.715 19.8031 21.6345 19.8031 21.6345C14.7394 19.3415 10.6702 15.27 8.37862 10.2033C8.12921 9.6519 8.29809 9.00108 8.7841 8.6407L10.7853 7.15679C10.9808 7.0118 11.0164 6.73308 10.8636 6.54355L7.78906 2.73027C7.64616 2.55304 7.38968 2.51861 7.20516 2.6519L4.16785 4.84583C2.67978 5.92071 2.15574 7.89645 2.9153 9.56818L3.86307 11.6542L3.86409 11.6564ZM18.1312 28.8645C10.7729 25.7393 4.85455 19.9757 1.5282 12.7268L1.5262 12.7224L0.576447 10.6321C-0.689487 7.84588 0.18392 4.55297 2.66403 2.76151L5.70133 0.567576C6.993 -0.365428 8.78841 -0.12446 9.78868 1.11615L12.8632 4.92943C13.933 6.2562 13.6838 8.20718 12.315 9.22216L11.1683 10.0725C13.1053 13.8332 16.1753 16.905 19.9339 18.8432L20.7837 17.6958C21.7981 16.3262 23.748 16.0769 25.074 17.1472L28.8845 20.2231C30.1248 21.2243 30.3653 23.0214 29.432 24.3139L27.2493 27.3366C25.4691 29.8018 22.2056 30.6809 19.429 29.4431L18.1312 28.8645Z" fill="white"/>
</svg>
