<svg width="47" height="47" viewBox="0 0 47 47" fill="none" xmlns="http://www.w3.org/2000/svg">
<path d="M45.4089 41.722L37.8326 34.1273C40.6803 30.4609 42.2216 25.9827 42.2216 21.2688C42.2216 15.6383 40.0271 10.3482 36.0561 6.36757C27.8789 -1.8556 14.5289 -1.8556 6.35171 6.36757C-1.85161 14.5907 -1.85161 27.9468 6.35171 36.1438C10.3227 40.1245 15.6 42.3243 21.217 42.3243C25.9718 42.3243 30.4914 40.7268 34.149 37.8461L41.7253 45.4407C42.2478 45.9645 42.9009 46.2002 43.5802 46.2002C44.2594 46.2002 44.9125 45.9383 45.4351 45.4407C46.4539 44.4194 46.4539 42.7695 45.4351 41.7482L45.4089 41.722ZM10.0354 32.4513C3.86981 26.2708 3.86981 16.2406 10.0354 10.0863C13.1181 6.99609 17.1675 5.45097 21.1908 5.45097C25.2141 5.45097 29.2635 6.99609 32.3463 10.0863C35.4291 13.1766 36.9705 17.0525 36.9705 21.2688C36.9705 25.4851 35.3246 29.4658 32.3463 32.4513C29.368 35.4368 25.397 37.0866 21.1908 37.0866C16.9847 37.0866 13.0136 35.4368 10.0354 32.4513Z" fill="white" stroke="white" stroke-width="0.4"/>
</svg>
