<svg width="74" height="74" viewBox="0 0 74 74" fill="none" xmlns="http://www.w3.org/2000/svg">
<path d="M71.945 66.0932L59.9218 54.0408C64.4409 48.2224 66.887 41.1157 66.887 33.6349C66.887 24.6995 63.4044 16.3044 57.1025 9.98731C44.1256 -3.0625 22.9398 -3.0625 9.96296 9.98731C-3.05536 23.0371 -3.05536 44.2327 9.96296 57.2409C16.2648 63.558 24.6397 67.0491 33.5535 67.0491C41.0991 67.0491 48.2716 64.5139 54.076 59.9423L66.0993 71.9947C66.9285 72.8259 67.9649 73.2 69.0429 73.2C70.1208 73.2 71.1573 72.7843 71.9865 71.9947C73.6034 70.3739 73.6034 67.7556 71.9865 66.1348L71.945 66.0932ZM15.8088 51.381C6.02429 41.5729 6.02429 25.6554 15.8088 15.8888C20.701 10.9847 27.1272 8.5327 33.512 8.5327C39.8968 8.5327 46.323 10.9847 51.2153 15.8888C56.1075 20.7929 58.5536 26.9438 58.5536 33.6349C58.5536 40.326 55.9416 46.6432 51.2153 51.381C46.4889 56.1188 40.187 58.7371 33.512 58.7371C26.837 58.7371 20.5352 56.1188 15.8088 51.381Z" fill="white" stroke="black" stroke-width="0.4"/>
</svg>
