<svg width="47" height="47" viewBox="0 0 47 47" fill="none" xmlns="http://www.w3.org/2000/svg">
<path d="M45.2269 41.6191L37.8153 34.1896C40.601 30.6029 42.1089 26.222 42.1089 21.6106C42.1089 16.1025 39.9621 10.9274 36.0774 7.0333C28.0779 -1.0111 15.0182 -1.0111 7.01874 7.0333C-1.00625 15.0777 -1.00625 28.1435 7.01874 36.1622C10.9035 40.0564 16.066 42.2084 21.5608 42.2084C26.2123 42.2084 30.6337 40.6456 34.2117 37.8275L41.6233 45.257C42.1345 45.7694 42.7734 46 43.4379 46C44.1024 46 44.7413 45.7438 45.2524 45.257C46.2492 44.2579 46.2492 42.6439 45.2524 41.6447L45.2269 41.6191ZM10.6223 32.55C4.5908 26.5038 4.5908 16.6917 10.6223 10.6712C13.6381 7.64816 17.5995 6.13663 21.5353 6.13663C25.4711 6.13663 29.4325 7.64816 32.4482 10.6712C35.464 13.6943 36.9719 17.4859 36.9719 21.6106C36.9719 25.7353 35.3618 29.6294 32.4482 32.55C29.5347 35.4705 25.65 37.0845 21.5353 37.0845C17.4206 37.0845 13.5359 35.4705 10.6223 32.55V32.55Z" fill="#222222" stroke="#222222" stroke-width="2"/>
</svg>
