<svg width="30" height="30" viewBox="0 0 30 30" fill="none" xmlns="http://www.w3.org/2000/svg">
<path d="M15 0.5C18.8836 0.500034 22.5199 2.01129 25.2578 4.74707C27.995 7.48243 29.5 11.1228 29.5 14.9961C29.4998 22.984 22.988 29.4844 15 29.4844H14.9922C12.565 29.4843 10.1802 28.8723 8.0625 27.7207C7.9508 27.6601 7.82022 27.6436 7.69727 27.6758L0.756836 29.4961C0.684226 29.5149 0.610538 29.4477 0.632812 29.3662L2.48633 22.6113C2.52168 22.4825 2.50426 22.3442 2.4375 22.2285C1.16735 20.0267 0.499092 17.5296 0.5 14.9883C0.500054 7.00012 7.01205 0.5 15 0.5ZM9.50098 7.31055C9.12515 7.31055 8.56527 7.44894 8.09766 7.95508C8.07838 7.97595 8.05621 7.99885 8.03027 8.02637C7.60071 8.48214 6.60855 9.5393 6.6084 11.5332C6.6084 12.5853 6.98498 13.5933 7.36816 14.3535C7.75449 15.12 8.16948 15.6773 8.28613 15.834L8.29492 15.8457V15.8447C8.29441 15.844 8.29503 15.8461 8.29883 15.8516C8.30239 15.8567 8.30745 15.8632 8.31348 15.8721C8.32564 15.8899 8.3409 15.9125 8.36035 15.9414C8.84424 16.6594 11.3307 20.3655 15.1436 21.8711V21.8721C16.6414 22.464 17.6276 22.7448 18.3369 22.8643C19.0648 22.9868 19.4907 22.9361 19.8408 22.8936C19.9113 22.885 19.9722 22.8777 20.0322 22.8721L20.0312 22.8711C20.5047 22.8268 21.1584 22.545 21.7129 22.1865C22.261 21.8321 22.8564 21.3121 23.0781 20.6982L23.0791 20.6943C23.2535 20.1998 23.3425 19.7375 23.374 19.3682C23.3897 19.184 23.3921 19.0151 23.3809 18.8721C23.3717 18.7557 23.3491 18.5745 23.2617 18.4268C23.1614 18.2572 23.0144 18.1506 22.8994 18.0801C22.7838 18.0092 22.6445 17.9429 22.5176 17.8818L22.3096 17.7803L20.9668 17.1221C20.4097 16.8528 19.8158 16.5706 19.6094 16.4932C19.4415 16.4303 19.1776 16.3333 18.8994 16.3662C18.5696 16.4054 18.3271 16.6039 18.1475 16.876C17.9071 17.2326 17.1872 18.0758 16.9531 18.3486C16.9301 18.3755 16.9128 18.388 16.9043 18.3945C16.8822 18.3914 16.8247 18.3786 16.7139 18.3232C16.6358 18.2843 16.5352 18.2408 16.4346 18.1973C15.9062 17.9684 14.8835 17.5264 13.7012 16.4697L13.7002 16.4688C12.6046 15.494 11.8538 14.2749 11.6396 13.9043C11.6247 13.8783 11.6184 13.8592 11.6143 13.8477C11.6176 13.8429 11.6222 13.8372 11.6279 13.8301C11.6514 13.801 11.6813 13.7688 11.7314 13.7188H11.7324C11.8623 13.5888 12.0062 13.4126 12.1289 13.2637C12.2026 13.1743 12.2717 13.0908 12.3369 13.0156H12.3379C12.5557 12.7644 12.6512 12.5607 12.7549 12.3447L12.7969 12.2588C12.9911 11.8593 12.9225 11.504 12.8135 11.2441L12.7646 11.1387C12.7644 11.1381 12.7634 11.1364 12.7617 11.1328C12.7595 11.1279 12.7567 11.1208 12.7529 11.1123C12.7452 11.095 12.7347 11.072 12.7227 11.0439C12.6987 10.988 12.6681 10.9147 12.6318 10.8271C12.559 10.6514 12.4654 10.4229 12.3623 10.1709C12.0994 9.52813 11.7711 8.72467 11.5742 8.28418V8.2832L11.5088 8.14746C11.352 7.84094 11.1643 7.61815 10.9277 7.48047C10.6606 7.32503 10.398 7.32198 10.2617 7.31836H10.2627C10.0293 7.31062 9.75946 7.31055 9.50098 7.31055Z" fill="white" stroke="white" stroke-linejoin="round"/>
</svg>
